<?xml version="1.0" encoding="UTF-8" standalone="no"?>
<!-- Created with Inkscape (http://www.inkscape.org/) -->

<svg
   xmlns:dc="http://purl.org/dc/elements/1.1/"
   xmlns:cc="http://creativecommons.org/ns#"
   xmlns:rdf="http://www.w3.org/1999/02/22-rdf-syntax-ns#"
   xmlns:svg="http://www.w3.org/2000/svg"
   xmlns="http://www.w3.org/2000/svg"
   xmlns:sodipodi="http://sodipodi.sourceforge.net/DTD/sodipodi-0.dtd"
   xmlns:inkscape="http://www.inkscape.org/namespaces/inkscape"
   version="1.1"
   width="30"
   height="30"
   viewBox="0 0 30 30"
   id="svg2"
   inkscape:version="0.91 r13725"
   sodipodi:docname="left.svg">
  <sodipodi:namedview
     pagecolor="#ffffff"
     bordercolor="#666666"
     borderopacity="1"
     objecttolerance="10"
     gridtolerance="10"
     guidetolerance="10"
     inkscape:pageopacity="0"
     inkscape:pageshadow="2"
     inkscape:window-width="1280"
     inkscape:window-height="962"
     id="namedview3340"
     showgrid="false"
     inkscape:zoom="256"
     inkscape:cx="17.590521"
     inkscape:cy="23.589774"
     inkscape:window-x="-8"
     inkscape:window-y="-8"
     inkscape:window-maximized="1"
     inkscape:current-layer="svg2" />
  <metadata
     id="metadata10">
    <rdf:RDF>
      <cc:Work
         rdf:about="">
        <dc:format>image/svg+xml</dc:format>
        <dc:type
           rdf:resource="http://purl.org/dc/dcmitype/StillImage" />
      </cc:Work>
    </rdf:RDF>
  </metadata>
  <defs
     id="defs8" />
  <path
     d="m 20.006,8.346 -6.037,6.037 c -0.01,0.006 -0.02,0.01 -0.03,0.018 -0.33,0.33 -0.34,0.86 -0.03,1.2 l -0.01,0.01 6.1,6.08 c -0.282,1.206 -0.636,2.33 -1.05,3.354 l -8.187,-8.184 c -1.016,-1.016 -1.016,-2.665 0,-3.68 l 8.193,-8.195 c 0.416,1.026 0.77,2.157 1.05,3.365 z"
     inkscape:connector-curvature="0"
     id="path4" />
  <path
     style="fill:#ffffff"
     d="m 14.716713,20.771759 c -4.567839,-4.573533 -4.396751,-4.386755 -4.582673,-5.002935 -0.2291914,-0.759585 -0.09353,-1.599022 0.359875,-2.226855 0.09931,-0.137515 2.042555,-2.110672 4.318321,-4.384794 l 4.137756,-4.1347666 0.144747,0.3781639 c 0.29659,0.7748716 0.812377,2.4819548 0.866433,2.8676075 0.01,0.071098 -0.601231,0.7029818 -3.104944,3.2100402 l -3.117352,3.121516 -0.04794,0.221082 c -0.04084,0.188368 -0.03802,0.255804 0.01908,0.455746 l 0.06701,0.234665 3.088368,3.08987 c 1.698602,1.699428 3.088367,3.117923 3.088367,3.15221 0,0.221338 -0.568183,2.108552 -0.861834,2.862571 l -0.150336,0.386026 -4.224882,-4.230147 z"
     id="path3342"
     inkscape:connector-curvature="0" />
  <path
     style="fill:#ffffff"
     d="m 10.178712,15.959906 c -0.2860309,-0.749817 -0.2183719,-1.575959 0.185073,-2.259807 0.07801,-0.132232 0.151174,-0.234522 0.264266,-0.369476 0.07126,-0.08504 4.340759,-4.3575339 4.354476,-4.3575339 0.0056,0 -0.470451,0.481553 -1.057979,1.0701179 -1.329018,1.331363 -2.284079,2.29733 -2.91795,2.951271 -0.367588,0.379227 -0.476361,0.49507 -0.522921,0.556909 -0.121965,0.161991 -0.259954,0.436383 -0.333809,0.663783 -0.08096,0.249268 -0.117848,0.468511 -0.124779,0.741556 -0.0086,0.339106 0.03429,0.605565 0.15886,0.986762 0.01175,0.03596 0.02007,0.06667 0.0185,0.06824 -0.0016,0.0016 -0.01226,-0.02174 -0.02373,-0.05183 z"
     id="path3344"
     inkscape:connector-curvature="0" />
  <path
     style="fill:#ffffff"
     d=""
     id="path3346"
     inkscape:connector-curvature="0" />
  <path
     style="fill:#ffffff"
     d="m 13.680638,15.146169 c -0.02286,-0.11619 -0.01786,-0.182462 0.0304,-0.402999 l 0.03046,-0.139211 0.0441,-0.0445 c 0.02426,-0.02447 0.04515,-0.04345 0.04644,-0.04216 0.0013,0.0013 -0.01173,0.02515 -0.02892,0.05303 -0.0953,0.154563 -0.1402,0.369575 -0.115507,0.553059 0.0091,0.06776 0.0047,0.08217 -0.007,0.02278 z"
     id="path3348"
     inkscape:connector-curvature="0" />
  <path
     style="fill:#ffffff"
     d="m 15.42646,17.153974 -1.647648,-1.648087 -0.02846,-0.09929 c -0.03439,-0.119988 -0.0358,-0.136569 -0.0052,-0.0611 0.03086,0.07608 0.07681,0.155101 0.122182,0.210103 0.02051,0.02487 0.03558,0.04801 0.03348,0.05141 -0.0021,0.0034 0.715756,0.723627 1.595242,1.600497 0.879486,0.876869 1.594335,1.594363 1.588552,1.59443 -0.0058,6.7e-5 -0.751956,-0.741517 -1.658163,-1.647964 z"
     id="path3350"
     inkscape:connector-curvature="0" />
  <path
     style="fill:#ffffff"
     d="m 12.530382,18.621664 c -1.023289,-1.023968 -1.879397,-1.883828 -1.902462,-1.9108 -0.145184,-0.169773 -0.27156,-0.363977 -0.370676,-0.569619 -0.05051,-0.104806 -0.0486,-0.116481 0.0029,-0.01789 0.177623,0.339826 0.56559,0.753159 2.953018,3.14609 0.944367,0.946544 1.2075,1.213979 1.19445,1.213979 -0.01293,0 -0.439278,-0.422822 -1.877262,-1.86176 z"
     id="path3352"
     inkscape:connector-curvature="0" />
  <path
     style="fill:#ffffff"
     d="m 15.794233,21.886311 c -1.110972,-1.1113 -1.397085,-1.401063 -1.389809,-1.40754 0.0073,-0.0065 0.144883,0.128018 0.666653,0.651528 0.36162,0.362826 0.993337,0.99622 1.403815,1.407541 0.502517,0.503549 0.741747,0.747856 0.732317,0.747856 -0.0093,0 -0.48524,-0.471374 -1.412976,-1.399385 z"
     id="path3354"
     inkscape:connector-curvature="0" />
  <path
     style="fill:#ffffff"
     d="m 19.204161,24.320786 c 0.01713,-0.0472 0.07162,-0.207193 0.121103,-0.355539 0.287305,-0.861352 0.587418,-1.896316 0.625002,-2.155368 0.0082,-0.0565 0.0081,-0.05744 -0.0097,-0.08057 -0.08624,-0.112262 -1.130541,-1.179792 -2.630204,-2.688698 -0.128091,-0.12888 -0.231119,-0.237196 -0.228952,-0.240703 0.0044,-0.0071 0.101863,0.08942 1.750224,1.733488 l 1.163074,1.160047 -0.0096,0.04126 c -0.03557,0.152703 -0.163177,0.655787 -0.207706,0.818893 -0.145161,0.531708 -0.303269,1.045387 -0.461452,1.499215 -0.109733,0.314825 -0.124504,0.353787 -0.134121,0.353787 -0.0059,0 0.0016,-0.02869 0.02232,-0.08582 z"
     id="path3356"
     inkscape:connector-curvature="0" />
  <path
     style="fill:#ffffff"
     d="m 15.993955,22.039384 c -4.359232,-4.363392 -4.929384,-4.941326 -5.363369,-5.436571 -0.311113,-0.355028 -0.388907,-0.486709 -0.483256,-0.818002 -0.07943,-0.278913 -0.100914,-0.411771 -0.109466,-0.676971 -0.01743,-0.540473 0.118201,-1.039131 0.398511,-1.46517 0.111926,-0.170117 0.234513,-0.298122 1.927924,-2.013151 l 1.006478,-1.019327 2.173918,0 2.173918,0 -1.992753,1.993116 -1.992754,1.993117 -0.03665,0.168136 c -0.04821,0.221151 -0.04226,0.353011 0.02642,0.586296 l 0.04886,0.165955 2.394045,2.398124 c 2.214788,2.218563 3.163151,3.177667 3.608317,3.649187 l 0.175791,0.186198 -0.02014,0.10804 c -0.08808,0.472477 -0.589569,2.096636 -0.872583,2.826001 -0.06264,0.161436 -0.115427,0.295054 -0.1173,0.296928 -0.0019,0.0019 -1.327533,-1.321985 -2.94591,-2.941906 z"
     id="path3358"
     inkscape:connector-curvature="0" />
  <path
     style="fill:#ffffff"
     d="m 18.003974,24.097954 c -0.518844,-0.518848 -0.941569,-0.943359 -0.939389,-0.943359 0.0022,0 0.02503,0.02122 0.05078,0.04715 0.0535,0.05389 0.09174,0.08826 0.09174,0.08247 0,-0.0022 -0.01325,-0.0184 -0.02945,-0.03604 -0.0162,-0.01764 -0.02881,-0.03272 -0.02803,-0.0335 7.81e-4,-7.8e-4 0.403772,0.401104 0.895537,0.893076 0.491765,0.491972 0.895053,0.894494 0.896195,0.894493 0.0025,-2e-6 0.164122,-0.414524 0.207413,-0.531973 0.01688,-0.04579 0.03076,-0.07843 0.03084,-0.07252 1.68e-4,0.01186 0.0057,0.01437 0.0096,0.0043 0.0014,-0.0035 0.0034,-0.0055 0.0045,-0.0044 0.0011,0.0011 2.43e-4,0.0062 -0.0019,0.0113 -0.0022,0.0051 -0.02757,0.07258 -0.05647,0.149918 -0.0289,0.07734 -0.0683,0.181055 -0.08755,0.230469 -0.05133,0.131784 -0.09888,0.251953 -0.0997,0.251953 -3.89e-4,0 -0.425217,-0.424511 -0.944061,-0.943359 z"
     id="path3360"
     inkscape:connector-curvature="0" />
  <path
     style="fill:#ffffff"
     d="m 18.191764,10.146574 c 0,-0.0043 0.103967,-0.111538 0.231038,-0.2382688 0.266169,-0.2654567 0.995633,-1.0112572 1.180542,-1.2069816 0.211249,-0.2236048 0.333326,-0.3654688 0.354518,-0.4119802 0.0069,-0.015209 0.0052,-0.036958 -0.0081,-0.1027843 -0.0093,-0.045921 -0.01562,-0.087324 -0.01406,-0.092007 0.0027,-0.00799 0.06143,0.2304834 0.06098,0.2474087 -2.82e-4,0.010392 -1.8049,1.8147227 -1.8049,1.8046127 z"
     id="path3362"
     inkscape:connector-curvature="0" />
  <path
     style="fill:#ffffff"
     d=""
     id="path3364"
     inkscape:connector-curvature="0" />
  <path
     style="fill:#ffffff"
     d="M 19.93095,8.1042179 C 19.930029,8.0904705 19.856383,7.8015785 19.819159,7.665695 19.652704,7.0580733 19.383558,6.1980066 19.190162,5.6557131 c -0.02043,-0.05728 -0.03714,-0.1048343 -0.03714,-0.1056757 0,-8.415e-4 0.0041,-0.00153 0.0092,-0.00153 0.0085,0 0.01244,0.00908 0.05259,0.1201172 0.225238,0.6229204 0.414713,1.2295249 0.594507,1.9033203 0.0357,0.1337696 0.132843,0.5178039 0.13275,0.5247752 -3.5e-5,0.00268 -0.0015,0.00226 -0.0036,-0.00104 -0.0026,-0.00419 -0.0039,-0.00274 -0.0052,0.00586 -0.0012,0.00837 -0.0019,0.00908 -0.0023,0.00268 z"
     id="path3366"
     inkscape:connector-curvature="0" />
  <path
     style="fill:#ffffff"
     d="m 16.680365,7.2653044 c 1.536035,-1.5360381 1.718027,-1.7167765 1.728513,-1.7166031 0.01052,1.739e-4 -0.164519,0.176263 -1.706704,1.7169499 -1.056287,1.0552615 -1.719491,1.7150314 -1.721191,1.7122799 -0.002,-0.00324 -0.0035,-0.00329 -0.0054,-1.531e-4 -0.0015,0.00238 -0.0048,0.00432 -0.0073,0.00432 -0.0026,0 0.767906,-0.7725586 1.712143,-1.7167969 z"
     id="path3368"
     inkscape:connector-curvature="0" />
  <path
     style="fill:#ffffff"
     d="m 18.408348,5.555088 c 0.002,-0.00587 9.3e-4,-0.00665 -0.0063,-0.00451 -0.0048,0.00142 0.116914,-0.1232697 0.270522,-0.2770884 0.153607,-0.1538186 0.280299,-0.2796702 0.281536,-0.2796702 0.0048,0 0.214568,0.5391051 0.214568,0.5514599 0,0.00207 -0.0039,0.00321 -0.0087,0.00252 -0.0072,-0.00103 -0.01131,-0.0084 -0.02367,-0.042264 -0.02172,-0.059534 -0.183286,-0.4820959 -0.185134,-0.484207 -8.6e-4,-9.818e-4 -0.123889,0.1203073 -0.273398,0.2695312 -0.149509,0.1492241 -0.270738,0.2681253 -0.269398,0.264225 z"
     id="path3370"
     inkscape:connector-curvature="0" />
</svg>
