<?xml version="1.0" encoding="UTF-8" standalone="no"?>
<!-- Created with Inkscape (http://www.inkscape.org/) -->

<svg
   xmlns:dc="http://purl.org/dc/elements/1.1/"
   xmlns:cc="http://creativecommons.org/ns#"
   xmlns:rdf="http://www.w3.org/1999/02/22-rdf-syntax-ns#"
   xmlns:svg="http://www.w3.org/2000/svg"
   xmlns="http://www.w3.org/2000/svg"
   xmlns:sodipodi="http://sodipodi.sourceforge.net/DTD/sodipodi-0.dtd"
   xmlns:inkscape="http://www.inkscape.org/namespaces/inkscape"
   version="1.1"
   width="30"
   height="30"
   viewBox="0 0 30 30"
   id="svg2"
   inkscape:version="0.91 r13725"
   sodipodi:docname="settings.svg">
  <sodipodi:namedview
     pagecolor="#ffffff"
     bordercolor="#666666"
     borderopacity="1"
     objecttolerance="10"
     gridtolerance="10"
     guidetolerance="10"
     inkscape:pageopacity="0"
     inkscape:pageshadow="2"
     inkscape:window-width="1280"
     inkscape:window-height="962"
     id="namedview3340"
     showgrid="false"
     inkscape:zoom="25.233333"
     inkscape:cx="15"
     inkscape:cy="15"
     inkscape:window-x="-8"
     inkscape:window-y="-8"
     inkscape:window-maximized="1"
     inkscape:current-layer="svg2" />
  <metadata
     id="metadata10">
    <rdf:RDF>
      <cc:Work
         rdf:about="">
        <dc:format>image/svg+xml</dc:format>
        <dc:type
           rdf:resource="http://purl.org/dc/dcmitype/StillImage" />
      </cc:Work>
    </rdf:RDF>
  </metadata>
  <defs
     id="defs8" />
  <path
     d="m 24.437,14.938 c 0,-1.12 0.364,-2.158 0.883,-2.34 l 0.833,-0.29 c -0.29,-1.217 -0.77,-2.36 -1.41,-3.393 l -0.79,0.38 C 23.457,9.533 22.466,9.058 21.673,8.265 20.88,7.472 20.406,6.482 20.645,5.987 l 0.38,-0.79 C 19.99,4.557 18.85,4.074 17.632,3.787 l -0.292,0.83 c -0.183,0.52 -1.22,0.884 -2.34,0.884 -1.12,0 -2.157,-0.36 -2.34,-0.88 l -0.29,-0.83 c -1.22,0.29 -2.35,0.79 -3.384,1.43 l 0.37,0.77 c 0.24,0.5 -0.236,1.49 -1.03,2.28 C 7.532,9.061 6.546,9.54 6.05,9.3 L 5.277,8.926 c -0.64,1.034 -1.142,2.165 -1.43,3.383 l 0.834,0.29 c 0.52,0.18 0.89,1.21 0.89,2.34 0,1.12 -0.36,2.15 -0.88,2.33 l -0.83,0.293 c 0.29,1.214 0.77,2.36 1.41,3.39 l 0.793,-0.38 c 0.495,-0.237 1.486,0.24 2.278,1.03 0.792,0.79 1.27,1.783 1.03,2.28 l -0.38,0.79 c 1.036,0.64 2.176,1.122 3.394,1.41 l 0.29,-0.833 c 0.18,-0.52 1.22,-0.883 2.34,-0.883 1.12,0 2.157,0.364 2.34,0.883 l 0.29,0.833 c 1.216,-0.29 2.36,-0.77 3.39,-1.41 l -0.38,-0.794 c -0.235,-0.498 0.24,-1.488 1.03,-2.28 0.79,-0.792 1.785,-1.27 2.28,-1.03 l 0.79,0.38 c 0.64,-1.033 1.123,-2.174 1.41,-3.392 l -0.832,-0.29 c -0.52,-0.18 -0.882,-1.22 -0.882,-2.34 z M 15,20.986 c -3.34,0 -6.048,-2.71 -6.048,-6.05 0,-3.34 2.708,-6.046 6.048,-6.046 3.34,0 6.05,2.708 6.05,6.05 0,3.34 -2.71,6.048 -6.05,6.048 z"
     inkscape:connector-curvature="0"
     id="path4" />
  <path
     style="fill:#ffffff"
     d="M 11.901996,25.931914 C 11.248271,25.744003 10.746054,25.551351 10.093633,25.23822 9.6511288,25.02584 9.1717022,24.768544 9.0243499,24.664363 c -0.00622,-0.0044 0.089023,-0.210967 0.2116617,-0.459035 0.2171644,-0.439274 0.2224451,-0.457806 0.202521,-0.710725 -0.085064,-1.0798 -1.543966,-2.641708 -2.7580014,-2.952729 -0.3321039,-0.08508 -0.4734774,-0.05893 -0.9845057,0.182122 -0.2299702,0.108477 -0.4212036,0.192663 -0.424963,0.18708 C 5.0393284,20.56693 4.5953446,19.674402 4.3623845,19.084385 4.1901181,18.648088 3.9035667,17.729677 3.9035667,17.613852 c 0,-0.02927 0.2012706,-0.121849 0.4737956,-0.217946 C 4.7803733,17.253799 4.872806,17.204877 4.9960595,17.06845 5.6604577,16.333041 5.780338,14.319898 5.2284325,13.166226 5.0427953,12.778181 4.874153,12.642151 4.357424,12.463653 4.1302994,12.385196 3.9263501,12.321004 3.9042033,12.321004 c -0.022147,0 -0.040267,-0.0073 -0.040267,-0.0162 0,-0.06832 0.309809,-1.058566 0.4215323,-1.347351 C 4.4453582,10.54417 4.9934619,9.419402 5.1703171,9.1416519 L 5.289565,8.9543742 5.6908103,9.1505925 C 5.9114952,9.2585124 6.1537145,9.3583779 6.2290752,9.3725156 6.5587477,9.4343624 7.2638706,9.1565838 7.7908229,8.7572746 8.5900688,8.1516297 9.2517971,7.2545706 9.3937189,6.5843397 9.4652683,6.2464454 9.4445489,6.1395002 9.2121832,5.647332 9.1082917,5.4272815 9.0306024,5.2354078 9.0395402,5.2209459 c 0.035235,-0.057011 0.918913,-0.530753 1.3726818,-0.7358976 0.505013,-0.2283115 1.524485,-0.5845661 1.79418,-0.6269764 l 0.158845,-0.024979 0.154654,0.4439888 c 0.170843,0.490465 0.248876,0.6059368 0.532449,0.7879051 0.755055,0.4845173 2.370269,0.58899 3.422485,0.2213677 0.318833,-0.1113935 0.621569,-0.2930838 0.757488,-0.4546146 0.05087,-0.060461 0.147844,-0.2684187 0.215486,-0.4621279 0.06764,-0.1937092 0.14097,-0.3994962 0.162949,-0.4573045 l 0.03996,-0.1051059 0.368828,0.099973 c 0.560206,0.151847 1.304124,0.4292497 1.854744,0.6916227 0.457244,0.2178789 1.109857,0.5769972 1.109857,0.6107292 0,0.00793 -0.09125,0.2068588 -0.202767,0.4420724 -0.176134,0.3714882 -0.202455,0.4588935 -0.200396,0.6654419 0.0055,0.547184 0.3618,1.1995889 1.035368,1.8955878 0.690287,0.713274 1.429812,1.1365169 2.003198,1.1464637 0.209189,0.00363 0.290045,-0.020747 0.672441,-0.2027204 l 0.434661,-0.2068454 0.07091,0.090627 c 0.133503,0.1706184 0.777618,1.5168918 0.939512,1.9636858 0.150819,0.41623 0.411152,1.283842 0.389021,1.296492 -0.0054,0.0031 -0.188184,0.06475 -0.40615,0.137011 -0.497038,0.164777 -0.657729,0.266888 -0.831185,0.528176 -0.493591,0.743527 -0.602954,2.296984 -0.238203,3.383558 0.220672,0.657374 0.411784,0.851878 1.044008,1.062544 0.242823,0.08091 0.441496,0.161844 0.441496,0.179849 0,0.100073 -0.308326,1.076135 -0.463299,1.466655 -0.197423,0.497493 -0.574573,1.276946 -0.789406,1.631461 l -0.136101,0.224592 -0.464777,-0.214323 c -0.505999,-0.233331 -0.611242,-0.249977 -0.977428,-0.154597 -0.526424,0.137116 -1.13473,0.539677 -1.697237,1.123189 -0.604301,0.626867 -0.975682,1.291595 -1.010367,1.808436 -0.01812,0.270037 -0.01287,0.289588 0.197522,0.735462 l 0.21614,0.45805 -0.439505,0.243746 c -0.806363,0.447202 -1.579743,0.769591 -2.401195,1.000957 -0.250661,0.0706 -0.466823,0.134563 -0.480361,0.142142 -0.01354,0.0076 -0.100546,-0.201559 -0.193351,-0.46475 -0.195465,-0.554331 -0.291984,-0.67513 -0.705092,-0.882467 -0.462719,-0.232235 -0.846655,-0.309912 -1.633086,-0.330403 -0.599967,-0.01563 -0.749039,-0.0067 -1.10502,0.06652 -0.474128,0.09747 -0.792764,0.21768 -1.054716,0.397907 -0.22392,0.154061 -0.304926,0.281113 -0.442227,0.6936 -0.05804,0.174372 -0.125272,0.364251 -0.149399,0.421952 l -0.04387,0.104911 -0.461294,-0.132598 z m 4.306723,-5.050648 c 1.868615,-0.397213 3.367711,-1.549846 4.216859,-3.242281 0.242596,-0.483519 0.401816,-0.943167 0.524267,-1.51349 0.07542,-0.351281 0.08934,-0.536522 0.08934,-1.188903 0,-0.652381 -0.01392,-0.837622 -0.08934,-1.188904 -0.119451,-0.556352 -0.280662,-1.027908 -0.503944,-1.474082 -0.865329,-1.729143 -2.353576,-2.873857 -4.276812,-3.2895936 -0.573224,-0.1239111 -1.764954,-0.1239111 -2.338178,0 -0.547277,0.1183023 -0.958261,0.2571607 -1.445387,0.4883501 -1.725929,0.8191235 -2.9226636,2.3531155 -3.3353685,4.2753255 -0.075422,0.351282 -0.089342,0.536523 -0.089342,1.188904 0,0.832786 0.053386,1.200549 0.2736313,1.884993 0.1464742,0.455188 0.527207,1.210514 0.81773,1.622272 0.311905,0.442063 0.978667,1.113556 1.409225,1.419223 0.802141,0.569468 1.79098,0.958672 2.785628,1.096415 0.435946,0.06037 1.51143,0.01748 1.961691,-0.07823 z"
     id="path3344"
     inkscape:connector-curvature="0" />
</svg>
